<svg width="793" height="296" viewBox="0 0 793 296" fill="none" xmlns="http://www.w3.org/2000/svg">
<path d="M0.284091 0.0909004H76.1364L156.25 195.545H159.659L239.773 0.0909004H315.625V291H255.966V101.653H253.551L178.267 289.58H137.642L62.358 100.943H59.9432V291H0.284091V0.0909004ZM427.379 295.119C413.459 295.119 401.054 292.705 390.163 287.875C379.273 282.951 370.656 275.706 364.311 266.142C358.061 256.483 354.936 244.456 354.936 230.062C354.936 217.941 357.161 207.761 361.612 199.523C366.063 191.284 372.124 184.655 379.794 179.636C387.464 174.617 396.177 170.83 405.93 168.273C415.779 165.716 426.101 163.917 436.896 162.875C449.586 161.549 459.813 160.318 467.578 159.182C475.343 157.951 480.978 156.152 484.482 153.784C487.985 151.417 489.737 147.913 489.737 143.273V142.42C489.737 133.424 486.896 126.464 481.214 121.54C475.627 116.616 467.673 114.153 457.351 114.153C446.461 114.153 437.796 116.568 431.357 121.398C424.917 126.133 420.656 132.098 418.572 139.295L362.607 134.75C365.447 121.492 371.035 110.034 379.368 100.375C387.701 90.6212 398.449 83.1401 411.612 77.9318C424.87 72.6288 440.211 69.9773 457.635 69.9773C469.756 69.9773 481.357 71.3977 492.436 74.2386C503.61 77.0795 513.506 81.483 522.124 87.4489C530.836 93.4148 537.701 101.085 542.72 110.46C547.739 119.741 550.249 130.867 550.249 143.841V291H492.862V260.744H491.158C487.654 267.562 482.966 273.576 477.095 278.784C471.224 283.898 464.169 287.922 455.93 290.858C447.692 293.699 438.175 295.119 427.379 295.119ZM444.709 253.358C453.61 253.358 461.47 251.606 468.288 248.102C475.107 244.504 480.457 239.674 484.339 233.614C488.222 227.553 490.163 220.687 490.163 213.017V189.864C488.269 191.095 485.665 192.231 482.351 193.273C479.131 194.22 475.485 195.119 471.413 195.972C467.341 196.729 463.269 197.439 459.197 198.102C455.125 198.67 451.432 199.191 448.118 199.665C441.016 200.706 434.813 202.364 429.51 204.636C424.207 206.909 420.088 209.987 417.152 213.869C414.216 217.657 412.749 222.392 412.749 228.074C412.749 236.312 415.732 242.61 421.697 246.966C427.758 251.227 435.429 253.358 444.709 253.358ZM647.763 72.8182L687.82 149.097L728.871 72.8182H790.945L727.734 181.909L792.649 291H730.859L687.82 215.574L645.49 291H582.99L647.763 181.909L585.263 72.8182H647.763Z" fill="white"/>
</svg>
