<svg width="1000" height="389" viewBox="0 0 1000 389" fill="none" xmlns="http://www.w3.org/2000/svg">
<g clip-path="url(#clip0_4842_21163)">
<path d="M0.284091 367V76.0909H115.057C137.121 76.0909 155.919 80.3049 171.449 88.733C186.979 97.0663 198.816 108.667 206.96 123.534C215.199 138.307 219.318 155.352 219.318 174.67C219.318 193.989 215.152 211.034 206.818 225.807C198.485 240.58 186.411 252.085 170.597 260.324C154.877 268.562 135.843 272.682 113.494 272.682H40.3409V223.392H103.551C115.388 223.392 125.142 221.356 132.812 217.284C140.578 213.117 146.354 207.388 150.142 200.097C154.025 192.71 155.966 184.235 155.966 174.67C155.966 165.011 154.025 156.583 150.142 149.386C146.354 142.095 140.578 136.46 132.812 132.483C125.047 128.411 115.199 126.375 103.267 126.375H61.7898V367H0.284091ZM318.643 76.0909V367H258.132V76.0909H318.643ZM466.548 371.261C444.105 371.261 424.787 366.716 408.594 357.625C392.495 348.439 380.09 335.466 371.378 318.705C362.666 301.848 358.31 281.915 358.31 258.903C358.31 236.46 362.666 216.763 371.378 199.812C380.09 182.862 392.353 169.652 408.168 160.182C424.077 150.712 442.732 145.977 464.134 145.977C478.527 145.977 491.927 148.297 504.332 152.938C516.832 157.483 527.723 164.348 537.003 173.534C546.378 182.72 553.67 194.273 558.878 208.193C564.086 222.019 566.69 238.212 566.69 256.773V273.392H382.457V235.892H509.73C509.73 227.18 507.836 219.462 504.048 212.739C500.26 206.015 495.005 200.759 488.281 196.972C481.652 193.089 473.935 191.148 465.128 191.148C455.942 191.148 447.798 193.278 440.696 197.54C433.688 201.706 428.196 207.341 424.219 214.443C420.241 221.451 418.205 229.263 418.111 237.881V273.534C418.111 284.33 420.099 293.657 424.077 301.517C428.149 309.377 433.878 315.438 441.264 319.699C448.651 323.96 457.41 326.091 467.543 326.091C474.266 326.091 480.421 325.144 486.009 323.25C491.596 321.356 496.378 318.515 500.355 314.727C504.332 310.939 507.363 306.299 509.446 300.807L565.412 304.5C562.571 317.947 556.747 329.689 547.94 339.727C539.228 349.67 527.959 357.436 514.134 363.023C500.402 368.515 484.541 371.261 466.548 371.261ZM661.009 304.216L661.151 231.631H669.957L739.844 148.818H809.304L715.412 258.477H701.065L661.009 304.216ZM606.179 367V76.0909H666.69V367H606.179ZM742.543 367L678.338 271.972L718.679 229.216L813.423 367H742.543Z" fill="white"/>
<path d="M50.4205 23.0085L36.571 23.8608C36.3343 22.6771 35.8253 21.6117 35.044 20.6648C34.2628 19.6941 33.233 18.9247 31.9545 18.3565C30.6998 17.7647 29.1965 17.4688 27.4446 17.4688C25.1009 17.4688 23.1241 17.9659 21.5142 18.9602C19.9044 19.9309 19.0994 21.233 19.0994 22.8665C19.0994 24.1686 19.6203 25.2694 20.6619 26.169C21.7036 27.0687 23.491 27.7907 26.0241 28.3352L35.8963 30.3239C41.1993 31.4129 45.1529 33.1648 47.7571 35.5795C50.3613 37.9943 51.6634 41.1667 51.6634 45.0966C51.6634 48.6714 50.6099 51.8082 48.5028 54.5071C46.4195 57.206 43.5549 59.313 39.9091 60.8281C36.2869 62.3196 32.1084 63.0653 27.3736 63.0653C20.1529 63.0653 14.4001 61.562 10.1151 58.5554C5.85369 55.5251 3.35606 51.4058 2.62216 46.1974L17.5014 45.4162C17.9512 47.6179 19.0402 49.2988 20.7685 50.4588C22.4967 51.5952 24.7102 52.1634 27.4091 52.1634C30.0606 52.1634 32.1913 51.6544 33.8011 50.6364C35.4347 49.5947 36.2633 48.2571 36.2869 46.6236C36.2633 45.2505 35.6832 44.1259 34.5469 43.25C33.4105 42.3504 31.6586 41.6638 29.2912 41.1903L19.8452 39.3082C14.5185 38.2429 10.553 36.3963 7.94886 33.7685C5.36837 31.1406 4.07812 27.7907 4.07812 23.7188C4.07812 20.215 5.02509 17.1965 6.91903 14.6634C8.83665 12.1302 11.5237 10.1771 14.9801 8.80398C18.4602 7.43087 22.5322 6.74432 27.196 6.74432C34.0852 6.74432 39.5066 8.20028 43.4602 11.1122C47.4375 14.0241 49.7576 17.9896 50.4205 23.0085ZM61.1893 62V7.45454H76.3171V62H61.1893ZM68.7887 0.423294C66.5397 0.423294 64.6102 -0.322446 63.0004 -1.81392C61.4142 -3.32907 60.6211 -5.14015 60.6211 -7.24716C60.6211 -9.3305 61.4142 -11.1179 63.0004 -12.6094C64.6102 -14.1245 66.5397 -14.8821 68.7887 -14.8821C71.0378 -14.8821 72.9554 -14.1245 74.5415 -12.6094C76.1514 -11.1179 76.9563 -9.3305 76.9563 -7.24716C76.9563 -5.14015 76.1514 -3.32907 74.5415 -1.81392C72.9554 -0.322446 71.0378 0.423294 68.7887 0.423294ZM88.4354 62V7.45454H102.853V17.0781H103.492C104.629 13.8821 106.522 11.3608 109.174 9.5142C111.826 7.66761 114.998 6.74432 118.691 6.74432C122.432 6.74432 125.616 7.67945 128.244 9.54971C130.871 11.3963 132.623 13.9058 133.499 17.0781H134.067C135.18 13.9531 137.192 11.4555 140.104 9.58523C143.04 7.69129 146.508 6.74432 150.509 6.74432C155.599 6.74432 159.73 8.366 162.903 11.6094C166.099 14.8291 167.697 19.3982 167.697 25.3168V62H152.604V28.2997C152.604 25.2694 151.799 22.9967 150.19 21.4815C148.58 19.9664 146.567 19.2088 144.153 19.2088C141.406 19.2088 139.264 20.0848 137.725 21.8366C136.186 23.5649 135.417 25.8494 135.417 28.6903V62H120.751V27.9801C120.751 25.3049 119.981 23.1742 118.442 21.5881C116.927 20.0019 114.927 19.2088 112.441 19.2088C110.76 19.2088 109.245 19.6349 107.896 20.4872C106.57 21.3158 105.516 22.4877 104.735 24.0028C103.954 25.4943 103.563 27.2462 103.563 29.2585V62H88.4354ZM179.646 82.4545V7.45454H194.561V16.6165H195.236C195.899 15.1487 196.857 13.6572 198.112 12.142C199.391 10.6032 201.048 9.32481 203.084 8.30682C205.143 7.26515 207.7 6.74432 210.754 6.74432C214.732 6.74432 218.401 7.78599 221.763 9.86932C225.125 11.929 227.812 15.0421 229.824 19.2088C231.836 23.3518 232.842 28.5483 232.842 34.7983C232.842 40.8826 231.86 46.0199 229.895 50.2102C227.954 54.3769 225.302 57.5374 221.94 59.6918C218.602 61.8224 214.862 62.8878 210.719 62.8878C207.783 62.8878 205.286 62.4025 203.226 61.4318C201.19 60.4612 199.521 59.242 198.219 57.7741C196.917 56.2827 195.922 54.7794 195.236 53.2642H194.774V82.4545H179.646ZM194.455 34.7273C194.455 37.9706 194.904 40.7997 195.804 43.2145C196.704 45.6293 198.006 47.5114 199.71 48.8608C201.415 50.1866 203.486 50.8494 205.925 50.8494C208.387 50.8494 210.47 50.1747 212.175 48.8253C213.879 47.4522 215.17 45.5582 216.045 43.1435C216.945 40.705 217.395 37.8996 217.395 34.7273C217.395 31.5786 216.957 28.8087 216.081 26.4176C215.205 24.0265 213.915 22.1562 212.21 20.8068C210.506 19.4574 208.411 18.7827 205.925 18.7827C203.463 18.7827 201.379 19.4337 199.675 20.7358C197.994 22.0379 196.704 23.8845 195.804 26.2756C194.904 28.6667 194.455 31.4839 194.455 34.7273ZM258.055 -10.7273V62H242.928V-10.7273H258.055ZM295.032 63.0653C289.421 63.0653 284.591 61.929 280.543 59.6562C276.518 57.3598 273.417 54.1165 271.239 49.9261C269.061 45.7121 267.972 40.7287 267.972 34.9759C267.972 29.3651 269.061 24.4408 271.239 20.2031C273.417 15.9654 276.483 12.6629 280.436 10.2955C284.414 7.92803 289.078 6.74432 294.428 6.74432C298.026 6.74432 301.376 7.32434 304.478 8.48438C307.603 9.62074 310.325 11.3371 312.645 13.6335C314.989 15.9299 316.812 18.8182 318.114 22.2983C319.416 25.7547 320.067 29.803 320.067 34.4432V38.598H274.009V29.223H305.827C305.827 27.045 305.354 25.1155 304.407 23.4347C303.46 21.7538 302.146 20.4399 300.465 19.4929C298.808 18.5223 296.878 18.0369 294.676 18.0369C292.38 18.0369 290.344 18.5696 288.569 19.6349C286.817 20.6766 285.444 22.0852 284.449 23.8608C283.455 25.6127 282.946 27.5658 282.922 29.7202V38.6335C282.922 41.3324 283.419 43.6643 284.414 45.6293C285.432 47.5942 286.864 49.1094 288.711 50.1747C290.557 51.2401 292.747 51.7727 295.28 51.7727C296.961 51.7727 298.5 51.536 299.897 51.0625C301.293 50.589 302.489 49.8788 303.483 48.9318C304.478 47.9848 305.235 46.8248 305.756 45.4517L319.748 46.375C319.037 49.7367 317.581 52.6723 315.38 55.1818C313.202 57.6676 310.384 59.6089 306.928 61.0057C303.495 62.3788 299.53 63.0653 295.032 63.0653Z" fill="white"/>
<path d="M354.807 72V-0.727275H380.233C385.299 -0.727275 389.478 0.148673 392.768 1.90057C396.059 3.62879 398.509 5.9607 400.119 8.89631C401.729 11.8082 402.534 15.0398 402.534 18.5909C402.534 21.7159 401.978 24.2964 400.865 26.3324C399.776 28.3684 398.332 29.9782 396.533 31.1619C394.757 32.3456 392.828 33.2216 390.744 33.7898V34.5C392.97 34.642 395.207 35.4233 397.456 36.8438C399.705 38.2642 401.587 40.3002 403.102 42.9517C404.617 45.6032 405.375 48.8466 405.375 52.6818C405.375 56.3277 404.546 59.6065 402.889 62.5185C401.232 65.4304 398.616 67.7386 395.041 69.4432C391.466 71.1477 386.814 72 381.085 72H354.807ZM363.614 64.1875H381.085C386.838 64.1875 390.922 63.0748 393.337 60.8494C395.775 58.6004 396.994 55.8778 396.994 52.6818C396.994 50.2197 396.367 47.947 395.112 45.8636C393.857 43.7566 392.07 42.0758 389.75 40.821C387.43 39.5426 384.684 38.9034 381.511 38.9034H363.614V64.1875ZM363.614 31.233H379.949C382.6 31.233 384.991 30.7121 387.122 29.6705C389.277 28.6288 390.981 27.161 392.236 25.267C393.514 23.3731 394.153 21.1477 394.153 18.5909C394.153 15.3949 393.041 12.6842 390.815 10.4588C388.59 8.20975 385.063 7.08523 380.233 7.08523H363.614V31.233ZM441.579 73.1364C436.323 73.1364 431.79 71.9763 427.978 69.6562C424.19 67.3125 421.266 64.0455 419.207 59.8551C417.171 55.6411 416.153 50.7405 416.153 45.1534C416.153 39.5663 417.171 34.642 419.207 30.3807C421.266 26.0956 424.131 22.7576 427.8 20.3665C431.494 17.9517 435.802 16.7443 440.727 16.7443C443.567 16.7443 446.373 17.2178 449.143 18.1648C451.913 19.1117 454.434 20.6506 456.707 22.7812C458.979 24.8883 460.79 27.6818 462.14 31.1619C463.489 34.642 464.164 38.9271 464.164 44.017V47.5682H422.119V40.3239H455.641C455.641 37.2462 455.026 34.5 453.795 32.0852C452.587 29.6705 450.859 27.7647 448.61 26.3679C446.385 24.9711 443.757 24.2727 440.727 24.2727C437.388 24.2727 434.5 25.1013 432.062 26.7585C429.647 28.392 427.789 30.5227 426.487 33.1506C425.184 35.7784 424.533 38.5956 424.533 41.6023V46.4318C424.533 50.5511 425.244 54.0431 426.664 56.9077C428.108 59.7486 430.109 61.9148 432.665 63.4062C435.222 64.8741 438.193 65.608 441.579 65.608C443.781 65.608 445.769 65.3002 447.545 64.6847C449.344 64.0455 450.895 63.0985 452.197 61.8438C453.499 60.5653 454.505 58.9792 455.215 57.0852L463.312 59.358C462.46 62.1042 461.027 64.5189 459.015 66.6023C457.003 68.6619 454.517 70.2718 451.558 71.4318C448.598 72.5682 445.272 73.1364 441.579 73.1364ZM500.634 17.4545V24.5568H472.367V17.4545H500.634ZM480.606 4.38636H488.987V56.375C488.987 58.7424 489.33 60.518 490.016 61.7017C490.727 62.8617 491.626 63.643 492.715 64.0455C493.828 64.4242 495 64.6136 496.231 64.6136C497.154 64.6136 497.912 64.5663 498.504 64.4716C499.095 64.3532 499.569 64.2585 499.924 64.1875L501.629 71.7159C501.06 71.929 500.267 72.142 499.249 72.3551C498.231 72.5919 496.941 72.7102 495.379 72.7102C493.011 72.7102 490.691 72.2012 488.418 71.1832C486.169 70.1652 484.299 68.6146 482.808 66.5312C481.34 64.4479 480.606 61.8201 480.606 58.6477V4.38636ZM529.292 73.2784C525.835 73.2784 522.699 72.6274 519.881 71.3253C517.064 69.9995 514.827 68.0938 513.17 65.608C511.513 63.0985 510.684 60.0682 510.684 56.517C510.684 53.392 511.299 50.8589 512.531 48.9176C513.762 46.9527 515.407 45.4138 517.467 44.3011C519.526 43.1884 521.799 42.3598 524.285 41.8153C526.794 41.2472 529.316 40.7973 531.849 40.4659C535.163 40.0398 537.85 39.7202 539.91 39.5071C541.993 39.2704 543.508 38.8797 544.455 38.3352C545.426 37.7907 545.911 36.8437 545.911 35.4943V35.2102C545.911 31.7064 544.952 28.9839 543.035 27.0426C541.141 25.1013 538.264 24.1307 534.406 24.1307C530.405 24.1307 527.268 25.0066 524.995 26.7585C522.722 28.5104 521.124 30.3807 520.201 32.3693L512.246 29.5284C513.667 26.214 515.561 23.6335 517.928 21.7869C520.319 19.9167 522.924 18.6146 525.741 17.8807C528.582 17.1231 531.375 16.7443 534.121 16.7443C535.873 16.7443 537.886 16.9574 540.158 17.3835C542.455 17.786 544.668 18.6264 546.799 19.9048C548.953 21.1832 550.741 23.1127 552.161 25.6932C553.582 28.2737 554.292 31.7301 554.292 36.0625V72H545.911V64.6136H545.485C544.917 65.7973 543.97 67.0639 542.644 68.4134C541.318 69.7628 539.555 70.911 537.353 71.858C535.151 72.8049 532.464 73.2784 529.292 73.2784ZM530.57 65.75C533.885 65.75 536.678 65.099 538.951 63.7969C541.247 62.4948 542.976 60.8139 544.136 58.7543C545.319 56.6946 545.911 54.5284 545.911 52.2557V44.5852C545.556 45.0114 544.775 45.402 543.567 45.7571C542.384 46.0885 541.011 46.3845 539.448 46.6449C537.909 46.8816 536.406 47.0947 534.938 47.2841C533.494 47.4498 532.322 47.5919 531.423 47.7102C529.245 47.9943 527.209 48.456 525.315 49.0952C523.444 49.7107 521.929 50.6458 520.769 51.9006C519.633 53.1316 519.065 54.8125 519.065 56.9432C519.065 59.8551 520.142 62.0568 522.296 63.5483C524.474 65.0161 527.232 65.75 530.57 65.75Z" fill="white"/>
</g>
<defs>
<clipPath id="clip0_4842_21163">
<rect width="1000" height="389" fill="white"/>
</clipPath>
</defs>
</svg>
